<svg width="35" height="34" viewBox="0 0 35 34" fill="none" xmlns="http://www.w3.org/2000/svg">
<path d="M27.4659 7.55091C25.5817 6.67258 23.5417 6.03508 21.4167 5.66675C21.3793 5.66728 21.3437 5.68256 21.3175 5.70925C21.0625 6.17675 20.765 6.78591 20.5667 7.25341C18.3128 6.91363 16.0206 6.91363 13.7667 7.25341C13.5684 6.77175 13.2709 6.17675 13.0017 5.70925C12.9875 5.68092 12.945 5.66675 12.9025 5.66675C10.7775 6.03508 8.75171 6.67258 6.85338 7.55091C6.83921 7.55091 6.82504 7.56508 6.81088 7.57925C2.95754 13.3451 1.89504 18.9551 2.41921 24.5084C2.41921 24.5367 2.43338 24.5651 2.46171 24.5792C5.01171 26.4492 7.46254 27.5826 9.88504 28.3334C9.92754 28.3476 9.97004 28.3334 9.98421 28.3051C10.5509 27.5259 11.0609 26.7042 11.5 25.8401C11.5284 25.7834 11.5 25.7267 11.4434 25.7126C10.6359 25.4009 9.87088 25.0326 9.12004 24.6076C9.06338 24.5792 9.06338 24.4942 9.10588 24.4517C9.26171 24.3384 9.41754 24.2109 9.57338 24.0976C9.60171 24.0692 9.64421 24.0692 9.67254 24.0834C14.5459 26.3076 19.8017 26.3076 24.6184 24.0834C24.6467 24.0692 24.6892 24.0692 24.7175 24.0976C24.8734 24.2251 25.0292 24.3384 25.185 24.4659C25.2417 24.5084 25.2417 24.5934 25.1709 24.6217C24.4342 25.0609 23.655 25.4151 22.8475 25.7267C22.7909 25.7409 22.7767 25.8117 22.7909 25.8542C23.2442 26.7184 23.7542 27.5401 24.3067 28.3192C24.3492 28.3334 24.3917 28.3476 24.4342 28.3334C26.8709 27.5826 29.3217 26.4492 31.8717 24.5792C31.9 24.5651 31.9142 24.5367 31.9142 24.5084C32.5375 18.0909 30.88 12.5234 27.5225 7.57925C27.5084 7.56508 27.4942 7.55091 27.4659 7.55091ZM12.2367 21.1226C10.7775 21.1226 9.55921 19.7767 9.55921 18.1192C9.55921 16.4617 10.7492 15.1159 12.2367 15.1159C13.7384 15.1159 14.9284 16.4759 14.9142 18.1192C14.9142 19.7767 13.7242 21.1226 12.2367 21.1226ZM22.1109 21.1226C20.6517 21.1226 19.4334 19.7767 19.4334 18.1192C19.4334 16.4617 20.6234 15.1159 22.1109 15.1159C23.6125 15.1159 24.8025 16.4759 24.7884 18.1192C24.7884 19.7767 23.6125 21.1226 22.1109 21.1226Z" fill="white" fill-opacity="0.75"/>
</svg>
