<svg width="33" height="32" viewBox="0 0 33 32" fill="none" xmlns="http://www.w3.org/2000/svg">
<path d="M16.5 3.01392C14.7947 3.01392 13.106 3.34981 11.5305 4.00242C9.95491 4.65504 8.52333 5.61159 7.31746 6.81746C4.88209 9.25283 3.51392 12.5559 3.51392 16C3.51392 21.7399 7.24093 26.6097 12.3964 28.3368C13.0457 28.4407 13.2535 28.0382 13.2535 27.6875V25.4929C9.65635 26.272 8.89017 23.7527 8.89017 23.7527C8.2928 22.2463 7.44871 21.8438 7.44871 21.8438C6.26697 21.0386 7.53961 21.0646 7.53961 21.0646C8.83822 21.1555 9.52649 22.4022 9.52649 22.4022C10.6563 24.3761 12.5652 23.7917 13.3054 23.48C13.4223 22.6359 13.76 22.0645 14.1236 21.7399C11.2407 21.4152 8.21489 20.2984 8.21489 15.3507C8.21489 13.9093 8.70836 12.7535 9.55246 11.8315C9.4226 11.5068 8.96808 10.1563 9.68232 8.40315C9.68232 8.40315 10.7732 8.05253 13.2535 9.72774C14.2794 9.44204 15.3962 9.29919 16.5 9.29919C17.6038 9.29919 18.7207 9.44204 19.7466 9.72774C22.2269 8.05253 23.3177 8.40315 23.3177 8.40315C24.032 10.1563 23.5775 11.5068 23.4476 11.8315C24.2917 12.7535 24.7852 13.9093 24.7852 15.3507C24.7852 20.3114 21.7464 21.4023 18.8505 21.7269C19.318 22.1295 19.7466 22.9216 19.7466 24.1293V27.6875C19.7466 28.0382 19.9543 28.4537 20.6166 28.3368C25.7721 26.5967 29.4861 21.7399 29.4861 16C29.4861 14.2947 29.1502 12.606 28.4976 11.0305C27.845 9.45491 26.8885 8.02333 25.6826 6.81746C24.4767 5.61159 23.0451 4.65504 21.4696 4.00242C19.8941 3.34981 18.2054 3.01392 16.5 3.01392Z" fill="white" fill-opacity="0.75"/>
</svg>
