<svg width="32" height="32" viewBox="0 0 32 32" fill="none" xmlns="http://www.w3.org/2000/svg">
<path d="M22.0764 11.4549C23.1522 11.4549 24.0243 10.5828 24.0243 9.507C24.0243 8.43119 23.1522 7.55908 22.0764 7.55908C21.0006 7.55908 20.1285 8.43119 20.1285 9.507C20.1285 10.5828 21.0006 11.4549 22.0764 11.4549Z" fill="#D3D0D0"/>
<path d="M20.7778 4.3125C24.3619 4.3125 27.2708 7.22139 27.2708 10.8056V21.1944C27.2708 24.7786 24.3619 27.6875 20.7778 27.6875H10.3889C6.8047 27.6875 3.89581 24.7786 3.89581 21.1944V10.8056C3.89581 7.22139 6.8047 4.3125 10.3889 4.3125H15.5833H20.7778Z" stroke="#D3D0D0" stroke-width="2.59722" stroke-linecap="round" stroke-linejoin="round"/>
<path d="M15.5834 10.8057C18.4533 10.8057 20.7778 13.1302 20.7778 16.0001C20.7778 18.87 18.4533 21.1946 15.5834 21.1946C12.7134 21.1946 10.3889 18.87 10.3889 16.0001C10.3889 13.1302 12.7134 10.8057 15.5834 10.8057Z" stroke="#D3D0D0" stroke-width="2.59722" stroke-linecap="round" stroke-linejoin="round"/>
</svg>
