<svg width="30" height="30" viewBox="0 0 30 30" fill="none" xmlns="http://www.w3.org/2000/svg">
<path d="M15.0429 2.60425C21.8892 2.60425 27.4388 8.15386 27.4388 15.0001C27.4388 21.8463 21.8892 27.3959 15.0429 27.3959C12.8523 27.3997 10.7002 26.8199 8.80784 25.7163L2.65207 27.3959L4.32799 21.2377C3.22347 19.3447 2.64327 17.1917 2.64711 15.0001C2.64711 8.15386 8.19673 2.60425 15.0429 2.60425ZM10.8184 9.17404L10.5705 9.18396C10.4102 9.195 10.2536 9.2371 10.1094 9.30791C9.975 9.38416 9.85227 9.47935 9.74497 9.59054C9.59622 9.73061 9.51193 9.85209 9.42144 9.96985C8.96294 10.566 8.71608 11.2978 8.71983 12.0499C8.72231 12.6573 8.88098 13.2486 9.1289 13.8014C9.63588 14.9195 10.4701 16.1033 11.5709 17.2003C11.8361 17.4644 12.0965 17.7296 12.3766 17.9763C13.7444 19.1805 15.3743 20.0489 17.1366 20.5125L17.8407 20.6204C18.07 20.6327 18.2993 20.6154 18.5299 20.6042C18.8908 20.5852 19.2433 20.4875 19.5625 20.3179C19.7247 20.234 19.8831 20.143 20.0372 20.0452C20.0372 20.0452 20.0897 20.0097 20.1922 19.9336C20.3595 19.8097 20.4624 19.7217 20.6012 19.5766C20.7054 19.4692 20.7921 19.3444 20.8616 19.2023C20.9582 19.0002 21.0549 18.6147 21.0946 18.2937C21.1243 18.0482 21.1157 17.9143 21.1119 17.8313C21.107 17.6987 20.9967 17.5611 20.8764 17.5028L20.155 17.1793C20.155 17.1793 19.0766 16.7095 18.4171 16.4095C18.3481 16.3794 18.2741 16.3622 18.1989 16.3587C18.1141 16.3498 18.0284 16.3593 17.9475 16.3864C17.8667 16.4136 17.7926 16.4578 17.7304 16.5161C17.7242 16.5136 17.6411 16.5843 16.7449 17.6701C16.6935 17.7393 16.6226 17.7915 16.5414 17.8202C16.4601 17.8489 16.3722 17.8528 16.2887 17.8313C16.2079 17.8098 16.1288 17.7824 16.052 17.7495C15.8983 17.685 15.845 17.6602 15.7396 17.6156C15.0279 17.3056 14.3692 16.8861 13.7872 16.3723C13.6311 16.2359 13.486 16.0872 13.3373 15.9434C12.8496 15.4763 12.4246 14.948 12.0729 14.3716L11.9998 14.2539C11.948 14.1743 11.9056 14.089 11.8733 13.9997C11.8262 13.8175 11.9489 13.6712 11.9489 13.6712C11.9489 13.6712 12.2502 13.3415 12.3902 13.163C12.5266 12.9895 12.6419 12.8209 12.7162 12.7007C12.8625 12.4651 12.9084 12.2234 12.8315 12.0362C12.4844 11.1884 12.1258 10.345 11.7556 9.50625C11.6824 9.34014 11.4655 9.22114 11.2684 9.19759C11.2015 9.18933 11.1345 9.18272 11.0676 9.17776C10.9012 9.16821 10.7343 9.16987 10.5681 9.18272L10.8184 9.17404Z" fill="white" fill-opacity="0.75"/>
</svg>
